<?xml version="1.0" encoding="UTF-8" standalone="no"?>
<!DOCTYPE svg PUBLIC "-//W3C//DTD SVG 1.1//EN"
 "http://www.w3.org/Graphics/SVG/1.1/DTD/svg11.dtd">
<!-- Generated by graphviz version 2.38.0 (20140413.2041)
 -->
<!-- Title: Raygun Architecture Pages: 1 -->
<svg width="518pt" height="332pt"
 viewBox="0.00 0.00 518.20 332.00" xmlns="http://www.w3.org/2000/svg" xmlns:xlink="http://www.w3.org/1999/xlink">
<g id="graph0" class="graph" transform="scale(1 1) rotate(0) translate(4 328)">
<title>Raygun Architecture</title>
<polygon fill="white" stroke="none" points="-4,4 -4,-328 514.196,-328 514.196,4 -4,4"/>
<!-- Database -->
<g id="node1" class="node"><title>Database</title>
<ellipse fill="none" stroke="black" cx="44.1961" cy="-90" rx="44.393" ry="18"/>
<text text-anchor="middle" x="44.1961" y="-86.3" font-family="Times New Roman,serif" font-size="14.00">Database</text>
</g>
<!-- S3 -->
<g id="node2" class="node"><title>S3</title>
<ellipse fill="none" stroke="black" cx="459.196" cy="-90" rx="27" ry="18"/>
<text text-anchor="middle" x="459.196" y="-86.3" font-family="Times New Roman,serif" font-size="14.00">S3</text>
</g>
<!-- Elastic Search -->
<g id="node3" class="node"><title>Elastic Search</title>
<ellipse fill="none" stroke="black" cx="352.196" cy="-90" rx="61.99" ry="18"/>
<text text-anchor="middle" x="352.196" y="-86.3" font-family="Times New Roman,serif" font-size="14.00">Elastic Search</text>
</g>
<!-- Email + Integrations -->
<g id="node4" class="node"><title>Email + Integrations</title>
<ellipse fill="none" stroke="black" cx="189.196" cy="-90" rx="83.3857" ry="18"/>
<text text-anchor="middle" x="189.196" y="-86.3" font-family="Times New Roman,serif" font-size="14.00">Email + Integrations</text>
</g>
<!-- API -->
<g id="node5" class="node"><title>API</title>
<polygon fill="none" stroke="black" points="288.196,-324 234.196,-324 234.196,-288 288.196,-288 288.196,-324"/>
<text text-anchor="middle" x="261.196" y="-302.3" font-family="Times New Roman,serif" font-size="14.00">API</text>
</g>
<!-- Main Worker -->
<g id="node6" class="node"><title>Main Worker</title>
<polygon fill="none" stroke="black" points="306.696,-252 215.696,-252 215.696,-216 306.696,-216 306.696,-252"/>
<text text-anchor="middle" x="261.196" y="-230.3" font-family="Times New Roman,serif" font-size="14.00">Main Worker</text>
</g>
<!-- API&#45;&gt;Main Worker -->
<g id="edge1" class="edge"><title>API&#45;&gt;Main Worker</title>
<path fill="none" stroke="black" stroke-dasharray="1,5" d="M261.196,-287.697C261.196,-279.983 261.196,-270.712 261.196,-262.112"/>
<polygon fill="black" stroke="black" points="264.696,-262.104 261.196,-252.104 257.696,-262.104 264.696,-262.104"/>
</g>
<!-- Main Worker&#45;&gt;Database -->
<g id="edge4" class="edge"><title>Main Worker&#45;&gt;Database</title>
<path fill="none" stroke="black" d="M215.436,-222.605C185.823,-214.363 147.477,-200.73 118.196,-180 94.0179,-162.883 73.1465,-135.966 59.7914,-116.212"/>
<polygon fill="black" stroke="black" points="62.6156,-114.136 54.1992,-107.701 56.7654,-117.98 62.6156,-114.136"/>
</g>
<!-- Notification Worker -->
<g id="node7" class="node"><title>Notification Worker</title>
<polygon fill="none" stroke="black" points="255.196,-180 127.196,-180 127.196,-144 255.196,-144 255.196,-180"/>
<text text-anchor="middle" x="191.196" y="-158.3" font-family="Times New Roman,serif" font-size="14.00">Notification Worker</text>
</g>
<!-- Main Worker&#45;&gt;Notification Worker -->
<g id="edge2" class="edge"><title>Main Worker&#45;&gt;Notification Worker</title>
<path fill="none" stroke="black" stroke-dasharray="1,5" d="M243.893,-215.697C235.331,-207.135 224.852,-196.656 215.501,-187.304"/>
<polygon fill="black" stroke="black" points="217.846,-184.701 208.3,-180.104 212.897,-189.65 217.846,-184.701"/>
</g>
<!-- Search Worker -->
<g id="node8" class="node"><title>Search Worker</title>
<polygon fill="none" stroke="black" points="381.696,-180 280.696,-180 280.696,-144 381.696,-144 381.696,-180"/>
<text text-anchor="middle" x="331.196" y="-158.3" font-family="Times New Roman,serif" font-size="14.00">Search Worker</text>
</g>
<!-- Main Worker&#45;&gt;Search Worker -->
<g id="edge5" class="edge"><title>Main Worker&#45;&gt;Search Worker</title>
<path fill="none" stroke="black" stroke-dasharray="1,5" d="M278.499,-215.697C287.061,-207.135 297.54,-196.656 306.892,-187.304"/>
<polygon fill="black" stroke="black" points="309.496,-189.65 314.092,-180.104 304.546,-184.701 309.496,-189.65"/>
</g>
<!-- Storage Worker -->
<g id="node9" class="node"><title>Storage Worker</title>
<polygon fill="none" stroke="black" points="510.196,-180 404.196,-180 404.196,-144 510.196,-144 510.196,-180"/>
<text text-anchor="middle" x="457.196" y="-158.3" font-family="Times New Roman,serif" font-size="14.00">Storage Worker</text>
</g>
<!-- Main Worker&#45;&gt;Storage Worker -->
<g id="edge7" class="edge"><title>Main Worker&#45;&gt;Storage Worker</title>
<path fill="none" stroke="black" stroke-dasharray="1,5" d="M307.149,-216.588C334.8,-206.713 370.238,-194.057 399.73,-183.524"/>
<polygon fill="black" stroke="black" points="401.244,-186.7 409.484,-180.04 398.889,-180.107 401.244,-186.7"/>
</g>
<!-- Notification Worker&#45;&gt;Email + Integrations -->
<g id="edge3" class="edge"><title>Notification Worker&#45;&gt;Email + Integrations</title>
<path fill="none" stroke="black" d="M190.702,-143.697C190.481,-135.983 190.216,-126.712 189.971,-118.112"/>
<polygon fill="black" stroke="black" points="193.469,-118 189.685,-108.104 186.472,-118.2 193.469,-118"/>
</g>
<!-- Search Worker&#45;&gt;Elastic Search -->
<g id="edge6" class="edge"><title>Search Worker&#45;&gt;Elastic Search</title>
<path fill="none" stroke="black" d="M336.387,-143.697C338.727,-135.898 341.544,-126.509 344.147,-117.829"/>
<polygon fill="black" stroke="black" points="347.544,-118.688 347.065,-108.104 340.839,-116.677 347.544,-118.688"/>
</g>
<!-- Storage Worker&#45;&gt;S3 -->
<g id="edge8" class="edge"><title>Storage Worker&#45;&gt;S3</title>
<path fill="none" stroke="black" d="M457.69,-143.697C457.911,-135.983 458.176,-126.712 458.421,-118.112"/>
<polygon fill="black" stroke="black" points="461.92,-118.2 458.707,-108.104 454.923,-118 461.92,-118.2"/>
</g>
<!-- App -->
<g id="node10" class="node"><title>App</title>
<polygon fill="none" stroke="black" points="379.196,-36 325.196,-36 325.196,-0 379.196,-0 379.196,-36"/>
<text text-anchor="middle" x="352.196" y="-14.3" font-family="Times New Roman,serif" font-size="14.00">App</text>
</g>
<!-- App&#45;&gt;Database -->
<g id="edge9" class="edge"><title>App&#45;&gt;Database</title>
<path fill="none" stroke="black" d="M325.178,-23.6469C278.389,-31.9092 179.398,-50.3387 97.1961,-72 93.8234,-72.8887 90.3482,-73.8648 86.8665,-74.8859"/>
<polygon fill="black" stroke="black" points="85.6673,-71.5922 77.1164,-77.8477 87.702,-78.29 85.6673,-71.5922"/>
</g>
<!-- App&#45;&gt;S3 -->
<g id="edge10" class="edge"><title>App&#45;&gt;S3</title>
<path fill="none" stroke="black" d="M378.234,-36.0344C394.499,-46.6749 415.41,-60.3549 431.906,-71.1464"/>
<polygon fill="black" stroke="black" points="430.274,-74.2612 440.558,-76.8069 434.106,-68.4034 430.274,-74.2612"/>
</g>
<!-- App&#45;&gt;Elastic Search -->
<g id="edge11" class="edge"><title>App&#45;&gt;Elastic Search</title>
<path fill="none" stroke="black" d="M352.196,-36.1043C352.196,-43.7913 352.196,-53.0537 352.196,-61.6651"/>
<polygon fill="black" stroke="black" points="348.696,-61.6966 352.196,-71.6966 355.696,-61.6967 348.696,-61.6966"/>
</g>
</g>
</svg>
